<svg width="11" height="15" viewBox="0 0 11 15" fill="none" xmlns="http://www.w3.org/2000/svg">
<path d="M8.625 9.52837V13.8231C8.625 13.9956 8.48506 14.1356 8.3125 14.1356C8.25587 14.1356 8.20031 14.1202 8.15175 14.0911L5.5 12.5L2.84828 14.0911C2.70029 14.1798 2.50833 14.1318 2.41953 13.9839C2.39039 13.9352 2.375 13.8797 2.375 13.8231V9.52837C1.23192 8.61206 0.5 7.204 0.5 5.625C0.5 2.86357 2.73857 0.625 5.5 0.625C8.26144 0.625 10.5 2.86357 10.5 5.625C10.5 7.204 9.76806 8.61206 8.625 9.52837ZM5.5 9.375C7.57106 9.375 9.25 7.69606 9.25 5.625C9.25 3.55393 7.57106 1.875 5.5 1.875C3.42893 1.875 1.75 3.55393 1.75 5.625C1.75 7.69606 3.42893 9.375 5.5 9.375ZM5.5 8.125C4.11929 8.125 3 7.00569 3 5.625C3 4.24429 4.11929 3.125 5.5 3.125C6.88069 3.125 8 4.24429 8 5.625C8 7.00569 6.88069 8.125 5.5 8.125Z" fill="#00707E"/>
</svg>
